<?xml version="1.0" encoding="UTF-8" standalone="no"?>
<!-- Created with Inkscape (http://www.inkscape.org/) -->

<svg
   xmlns:dc="http://purl.org/dc/elements/1.1/"
   xmlns:cc="http://creativecommons.org/ns#"
   xmlns:rdf="http://www.w3.org/1999/02/22-rdf-syntax-ns#"
   xmlns:svg="http://www.w3.org/2000/svg"
   xmlns="http://www.w3.org/2000/svg"
   xmlns:sodipodi="http://sodipodi.sourceforge.net/DTD/sodipodi-0.dtd"
   xmlns:inkscape="http://www.inkscape.org/namespaces/inkscape"
   id="svg2"
   version="1.1"
   inkscape:version="0.48.5 r10040"
   width="442.9125"
   height="336.6125"
   xml:space="preserve"
   sodipodi:docname="125x95-reagrupado.svg"><metadata
     id="metadata8"><rdf:RDF><cc:Work
         rdf:about=""><dc:format>image/svg+xml</dc:format><dc:type
           rdf:resource="http://purl.org/dc/dcmitype/StillImage" /><dc:title></dc:title></cc:Work></rdf:RDF></metadata><defs
     id="defs6"><clipPath
       clipPathUnits="userSpaceOnUse"
       id="clipPath18"><path
         d="m 0,0 3543,0 0,2692.91 -3543,0 L 0,0 z"
         id="path20" /></clipPath></defs><sodipodi:namedview
     pagecolor="#ffffff"
     bordercolor="#666666"
     borderopacity="1"
     objecttolerance="10"
     gridtolerance="10"
     guidetolerance="10"
     inkscape:pageopacity="0"
     inkscape:pageshadow="2"
     inkscape:window-width="1366"
     inkscape:window-height="693"
     id="namedview4"
     showgrid="false"
     inkscape:zoom="1.4022059"
     inkscape:cx="246.05973"
     inkscape:cy="153.84729"
     inkscape:window-x="0"
     inkscape:window-y="0"
     inkscape:window-maximized="1"
     inkscape:current-layer="g10" /><g
     id="g10"
     inkscape:groupmode="layer"
     inkscape:label="ink_ext_XXXXXX"
     transform="matrix(1.25,0,0,-1.25,0,336.6125)"><path
       inkscape:connector-curvature="0"
       id="path22"
       style="fill:#54b53f;fill-opacity:1;fill-rule:nonzero;stroke:none"
       d="m 0,0 354.331,0 0,269.291 L 0,269.291 0,0 z" /><path
       inkscape:connector-curvature="0"
       id="path24"
       style="fill:none;stroke:#100f0d;stroke-width:1;stroke-linecap:butt;stroke-linejoin:miter;stroke-miterlimit:10;stroke-opacity:1;stroke-dasharray:none"
       d="m 59.7641,146.148 c 0,-1.749 -1.4024,-3.166 -3.1348,-3.166 -1.7328,0 -3.1371,1.417 -3.1371,3.166 0,1.746 1.4043,3.163 3.1371,3.163 1.7324,0 3.1348,-1.417 3.1348,-3.163 z" /><path
       inkscape:connector-curvature="0"
       id="path26"
       style="fill:#ffffff;fill-opacity:1;fill-rule:evenodd;stroke:none"
       d="m 150.609,209.814 c 0.202,0 0.402,0 0.601,0 -0.199,0 -0.399,0 -0.601,0" /><path
       inkscape:connector-curvature="0"
       id="path28"
       style="fill:#211d1d;fill-opacity:1;fill-rule:evenodd;stroke:none"
       d="m 150.912,191.656 c 0.199,0 0.398,0 0.598,0 -0.2,0 -0.399,0 -0.598,0" /><path
       inkscape:connector-curvature="0"
       id="path30"
       style="fill:#100f0d;fill-opacity:1;fill-rule:evenodd;stroke:none"
       d="m 137.716,184.089 c 0.199,0 0.397,0 0.598,0 -0.201,0 -0.399,0 -0.598,0" /><path
       inkscape:connector-curvature="0"
       id="path32"
       style="fill:none;stroke:#100f0d;stroke-width:1;stroke-linecap:butt;stroke-linejoin:miter;stroke-miterlimit:10;stroke-opacity:1;stroke-dasharray:none"
       d="m 59.7641,146.148 108.9849,0 -108.9849,0 z" /><path
       inkscape:connector-curvature="0"
       id="path34"
       style="fill:#231f20;fill-opacity:1;fill-rule:nonzero;stroke:none"
       d="m 228.749,229.748 66.599,0" /><path
       inkscape:connector-curvature="0"
       id="path36"
       style="fill:none;stroke:#100f0d;stroke-width:1;stroke-linecap:butt;stroke-linejoin:miter;stroke-miterlimit:10;stroke-opacity:1;stroke-dasharray:none"
       d="m 228.749,229.748 66.599,0" /><path
       inkscape:connector-curvature="0"
       id="path38"
       style="fill:#000000;fill-opacity:1;fill-rule:nonzero;stroke:none"
       d="m 294.89,229.748 0,12.483" /><path
       inkscape:connector-curvature="0"
       id="path40"
       style="fill:none;stroke:#100f0d;stroke-width:1;stroke-linecap:butt;stroke-linejoin:miter;stroke-miterlimit:10;stroke-opacity:1;stroke-dasharray:none"
       d="m 294.89,229.748 0,12.483" /><path
       inkscape:connector-curvature="0"
       id="path42"
       style="fill:#ffffff;fill-opacity:1;fill-rule:nonzero;stroke:none"
       d="m 298.024,244.595 c 0,-1.749 -1.402,-3.166 -3.134,-3.166 -1.733,0 -3.137,1.417 -3.137,3.166 0,1.746 1.404,3.163 3.137,3.163 1.732,0 3.134,-1.417 3.134,-3.163" /><path
       inkscape:connector-curvature="0"
       id="path44"
       style="fill:none;stroke:#100f0d;stroke-width:1;stroke-linecap:butt;stroke-linejoin:miter;stroke-miterlimit:10;stroke-opacity:1;stroke-dasharray:none"
       d="m 298.024,244.595 c 0,-1.749 -1.402,-3.166 -3.134,-3.166 -1.733,0 -3.137,1.417 -3.137,3.166 0,1.746 1.404,3.163 3.137,3.163 1.732,0 3.134,-1.417 3.134,-3.163 z" /><path
       inkscape:connector-curvature="0"
       id="path46"
       style="fill:#211d1d;fill-opacity:1;fill-rule:nonzero;stroke:none"
       d="m 145.662,81.8191 c 1.847,22.9499 15.149,36.3219 26.878,43.3299 4.66,2.723 13.78,8.394 19.091,10.545 0.688,0.28 1.308,0.554 1.898,0.823 -1.488,3.084 -1.758,7.46 -1.654,11.704 -5.311,-2.289 -10.913,-10.652 -15.984,-8.74 -4.746,1.792 -7.417,6.017 -12.12,9.776 -0.726,0.763 -3.993,3.006 -3.081,4.438 0.471,1.566 5.924,-4.759 6.633,-3.628 1.404,2.25 -8.379,19.643 -6.652,20.578 2.238,1.046 7.892,-15.47 8.445,-15.195 1.61,0.314 -1.914,11.025 0.151,11.175 1.754,0.129 2.778,-8.842 2.939,-10.166 0.499,-2.134 1.442,-1.876 1.659,-0.156 0.045,2.284 -0.439,7.009 0.596,7.421 3.022,0.403 1.084,-9.717 2.335,-9.883 0.992,-0.104 0.903,7.035 3.569,5.429 0.672,-0.543 -2.418,-10.876 -0.788,-11.402 5.107,2.16 7.514,8.975 13.913,9.47 8.379,0.647 4.712,-12.631 8.616,-12.884 0.074,-0.004 3.415,0.412 3.492,0.419 0.194,-0.046 0.83,-0.018 1.475,0.006 1.035,0.641 2.176,1.328 3.463,2.073 11.883,6.911 19.315,19.379 20.658,32.363 -0.6,2.681 -0.797,5.392 -3.461,6.551 -3.305,-7.351 -8.226,-16.184 -15.103,-6.69 -2.349,3.242 -4.193,6.717 -8.335,7.224 -2.397,0.297 -9.653,-1.286 -10.55,0.709 -0.804,1.382 2.889,0.832 3.997,0.981 7.363,-0.39 -4.736,9.78 -5.531,10.64 -0.473,0.502 -1.482,1.141 -1.162,1.487 1.767,1.738 7.743,-6.123 9.409,-4.728 0.233,0.327 -0.278,0.904 -0.472,1.144 -1.499,1.69 -2.869,3.517 -2.732,4.302 0.242,0.785 1.233,0.17 1.685,-0.386 1.383,-1.545 4.036,-4.955 4.433,-4.19 -0.034,1.827 -1.643,5.339 -0.294,5.361 1.189,0.021 1.556,-4.243 2.842,-5.017 1.358,-0.783 2.668,5.4 3.454,4.084 0.562,-0.823 -0.709,-2.734 -0.763,-4.668 -0.066,-2.265 1.247,-3.961 2.126,-5.856 0.849,-1.824 5.112,-7.893 7.702,-6.904 1.831,0.702 4.386,7.835 5.244,9.516 1.177,2.296 2.936,3.876 4.485,5.559 -4.799,10.14 -14.533,19.667 -22.186,17.685 -1.935,-0.499 -3.854,-0.874 -5.745,-1.154 0.05,-0.102 0.089,-0.209 0.1,-0.322 0.067,-1.038 -1.77,-2.004 -4.103,-2.163 -2.332,-0.157 -4.275,0.559 -4.347,1.596 -0.008,0.111 0.015,0.229 0.054,0.342 -11.271,0.153 -20.073,4.029 -21.542,8.441 -1.858,5.59 8.271,12.274 18.509,15.743 0.011,0.937 1.289,2.214 3.133,3.039 2.108,0.935 4.152,0.926 4.568,-0.024 0.139,-0.317 0.066,-0.694 -0.15,-1.095 2.59,0.425 4.971,0.543 6.902,0.245 22.087,-3.382 46.953,-14.37 57.421,-42.706 0.23,-0.638 0.451,-1.279 0.663,-1.931 3.295,-3.475 7.707,-6.686 10.693,-7.519 2.124,-0.587 7.278,5.361 8.019,8.832 0.173,2.567 -3.035,9.524 -3.402,11.948 0.471,1.201 1.089,0.735 1.38,0.366 0.179,-0.017 1.363,-3.255 2.366,-4.035 0.959,-0.809 1.438,8.286 3.063,8.09 1.498,-0.183 -0.736,-6.806 0.635,-7.237 1.273,-0.282 5.134,9.636 6.64,8.988 1.452,-0.981 -4.053,-9.152 -2.61,-10.641 0.782,-0.82 7.935,9.551 8.949,8.572 1.363,-1.321 -6.994,-10.111 -6.549,-12.241 0.605,-1.253 7.032,0.964 7.315,0.124 0.815,-1.796 -6.975,-2.958 -10.001,-4.647 -4.339,-2.423 -8.14,-16.198 -12.027,-16.89 -1.488,-0.263 -7.423,2.386 -12.176,4.578 1.556,-18.844 -6.319,-40.367 -26.628,-52.297 -8.657,-5.26 -15.041,-9.4 -23.391,-12.436 3.482,-3.439 8.01,-12.167 8.545,-15.342 0.978,-5.7852 -10.784,-9.1758 -14.569,-12.2059 1.613,-1.8883 4.438,-3.5562 6.737,-4.2531 2.003,-0.6141 6.574,-0.6262 6.335,-2.3481 -0.148,-1.0808 -5.329,0.009 -6.94,-0.1437 -0.389,-0.7813 7.328,-3.5301 6.425,-5.0711 -1.112,-1.8981 -8.11,3.2711 -8.695,2.468 -0.198,-0.3469 9.395,-10.3032 8.276,-11.4692 -1.49,-1.5609 -10.014,9.9141 -10.83,8.9082 2.283,-4.264 8.618,-15.4609 7.351,-17.1011 -1.047,-1.3692 -8.075,12.773 -11.1,17.2992 -3.643,-0.3492 0.506,-9.5422 -2.26,-9.9262 -1.291,-0.1738 -2.687,13.0352 -2.985,17.9988 -0.18,2.9672 2.789,6.1043 4.852,8.2864 2.534,2.682 6.619,4.1748 8.711,6.6268 -1.491,1.28 -3.584,1.866 -5.15,2.959 -1.479,1.026 -2.891,2.496 -4.336,3.512 -2.111,1.486 -4.713,3.359 -6.424,5.712 -7.35,-1.958 -17.002,-6.811 -19.473,-8.732 C 169.654,99.8172 147.574,78.9078 165.162,47.1 186.979,16.4391 232.846,29.6031 233.751,26.232 235.464,19.8309 139.375,3.83906 145.662,81.8191" /><g
       id="g3188"><path
         d="m 78.3328,174.504 -4.6402,0 0,7.56 -4.9387,0 0,-7.56 -4.641,0 0,19.071 4.641,0 0,-7.338 4.9387,0 0,7.338 4.6402,0 0,-19.071"
         style="fill:#100f0d;fill-opacity:1;fill-rule:nonzero;stroke:none"
         id="path62"
         inkscape:connector-curvature="0" /><path
         d="m 94.3164,177.028 -1.4,0 0,-2.524 -4.1352,0 0,2.524 -7.8421,0 0,4.173 6.2757,12.374 4.7707,0 -6.2632,-12.374 3.0589,0 0,2.525 4.1352,0 0,-2.525 1.4,0 0,-4.173"
         style="fill:#100f0d;fill-opacity:1;fill-rule:nonzero;stroke:none"
         id="path64"
         inkscape:connector-curvature="0" /><path
         d="m 110.649,180.56 c -0.164,-1.012 -0.46,-1.917 -0.887,-2.714 -0.426,-0.798 -0.958,-1.455 -1.593,-1.969 -0.635,-0.514 -1.348,-0.898 -2.143,-1.151 -0.795,-0.253 -1.64,-0.379 -2.539,-0.379 -2.097,0 -3.8448,0.715 -5.2452,2.145 -0.8273,0.837 -1.3547,1.788 -1.5793,2.852 -0.2246,1.063 -0.3367,2.415 -0.3367,4.054 l 0,1.282 c 0,1.64 0.1121,2.993 0.3367,4.062 0.2246,1.068 0.752,2.021 1.5793,2.858 0.709,0.715 1.4867,1.249 2.3312,1.602 0.847,0.353 1.817,0.53 2.914,0.53 0.943,0 1.805,-0.129 2.591,-0.386 0.786,-0.257 1.488,-0.641 2.11,-1.151 0.623,-0.51 1.148,-1.16 1.574,-1.949 0.427,-0.789 0.723,-1.698 0.887,-2.728 l -4.718,0 c -0.164,0.62 -0.43,1.115 -0.797,1.486 -0.367,0.37 -0.91,0.555 -1.627,0.555 -0.398,0 -0.754,-0.074 -1.069,-0.222 -0.316,-0.148 -0.569,-0.341 -0.759,-0.576 -0.164,-0.209 -0.296,-0.46 -0.395,-0.752 -0.099,-0.292 -0.178,-0.737 -0.234,-1.334 -0.056,-0.597 -0.084,-1.476 -0.084,-2.636 0,-1.543 0.056,-2.627 0.169,-3.25 0.112,-0.623 0.294,-1.11 0.544,-1.459 0.415,-0.541 1.024,-0.81 1.828,-0.81 0.7,0 1.238,0.185 1.614,0.555 0.376,0.371 0.646,0.866 0.81,1.485 l 4.718,0"
         style="fill:#100f0d;fill-opacity:1;fill-rule:nonzero;stroke:none"
         id="path66"
         inkscape:connector-curvature="0" /><path
         d="m 129.043,174.504 -5.405,0 -4.355,7.822 -1.595,-1.845 0,-5.977 -4.615,0 0,19.071 4.615,0 0,-6.75 5.471,6.75 5.677,0 -6.455,-7.718 6.662,-11.353"
         style="fill:#100f0d;fill-opacity:1;fill-rule:nonzero;stroke:none"
         id="path68"
         inkscape:connector-curvature="0" /><path
         d="m 143.808,174.504 -12.846,0 0,19.071 12.846,0 0,-4.173 -8.205,0 0,-3.191 7.013,0 0,-4.173 -7.013,0 0,-3.362 8.205,0 0,-4.172"
         style="fill:#100f0d;fill-opacity:1;fill-rule:nonzero;stroke:none"
         id="path70"
         inkscape:connector-curvature="0" /><path
         d="m 156.395,187.434 c 0,0.337 -0.08,0.656 -0.24,0.952 -0.162,0.294 -0.395,0.532 -0.702,0.709 -0.309,0.178 -0.665,0.268 -1.074,0.268 l -2.637,0 0,-3.845 2.637,0 c 0.409,0 0.765,0.089 1.074,0.268 0.307,0.176 0.54,0.412 0.702,0.704 0.16,0.29 0.24,0.606 0.24,0.944 z m 5.639,-12.93 -5.367,0 -3.353,7.102 -1.572,0 0,-7.102 -4.641,0 0,19.071 7.486,0 c 1.354,0 2.517,-0.286 3.482,-0.857 0.969,-0.571 1.703,-1.323 2.208,-2.256 0.506,-0.933 0.759,-1.941 0.759,-3.022 0,-1.194 -0.301,-2.217 -0.899,-3.067 -0.598,-0.851 -1.324,-1.489 -2.178,-1.916 l 4.075,-7.953"
         style="fill:#100f0d;fill-opacity:1;fill-rule:nonzero;stroke:none"
         id="path72"
         inkscape:connector-curvature="0" /></g><g
       id="g3155"><path
         d="m 77.8277,202.884 c -0.164,-1.012 -0.4601,-1.917 -0.8879,-2.714 -0.4257,-0.799 -0.9574,-1.455 -1.5921,-1.969 -0.6352,-0.515 -1.3481,-0.898 -2.1434,-1.151 -0.7949,-0.253 -1.6398,-0.38 -2.5387,-0.38 -2.0976,0 -3.8453,0.716 -5.2457,2.146 -0.8269,0.837 -1.3547,1.788 -1.5793,2.851 -0.2246,1.064 -0.3367,2.415 -0.3367,4.055 l 0,1.282 c 0,1.639 0.1121,2.993 0.3367,4.061 0.2246,1.069 0.7524,2.021 1.5793,2.858 0.709,0.716 1.4867,1.25 2.3317,1.603 0.8464,0.353 1.8168,0.529 2.914,0.529 0.9422,0 1.8039,-0.128 2.5906,-0.385 0.7864,-0.258 1.4883,-0.641 2.1106,-1.152 0.6227,-0.51 1.1473,-1.159 1.573,-1.948 0.4278,-0.79 0.7239,-1.699 0.8879,-2.728 l -4.7183,0 c -0.1645,0.619 -0.4301,1.115 -0.7973,1.485 -0.3672,0.371 -0.9098,0.556 -1.6269,0.556 -0.3977,0 -0.754,-0.074 -1.0696,-0.222 -0.3152,-0.149 -0.5683,-0.341 -0.7582,-0.576 -0.164,-0.209 -0.2961,-0.46 -0.3957,-0.752 -0.0988,-0.292 -0.1769,-0.737 -0.2332,-1.335 -0.0562,-0.596 -0.084,-1.475 -0.084,-2.635 0,-1.544 0.0563,-2.627 0.1684,-3.25 0.1125,-0.624 0.2941,-1.11 0.5445,-1.459 0.4153,-0.541 1.0238,-0.811 1.8278,-0.811 0.7,0 1.2382,0.185 1.6136,0.556 0.3758,0.371 0.6461,0.865 0.8106,1.485 l 4.7183,0"
         style="fill:#ffffff;fill-opacity:1;fill-rule:nonzero;stroke:none"
         id="path48"
         inkscape:connector-curvature="0" /><path
         d="m 88.7422,203.577 -1.5942,5.088 -1.6984,-5.088 3.2926,0 z m 6.948,-6.749 -4.848,0 -0.8813,2.838 -5.8203,0 -0.9203,-2.838 -4.8609,0 6.8703,19.07 3.5906,0 6.8699,-19.07"
         style="fill:#ffffff;fill-opacity:1;fill-rule:nonzero;stroke:none"
         id="path50"
         inkscape:connector-curvature="0" /><path
         d="m 110.183,196.828 -12.574,0 0,19.07 4.641,0 0,-14.898 7.933,0 0,-4.172"
         style="fill:#ffffff;fill-opacity:1;fill-rule:nonzero;stroke:none"
         id="path52"
         inkscape:connector-curvature="0" /><path
         d="m 121.37,203.577 -1.595,5.088 -1.698,-5.088 3.293,0 z m 6.948,-6.749 -4.848,0 -0.882,2.838 -5.82,0 -0.92,-2.838 -4.862,0 6.871,19.07 3.59,0 6.871,-19.07"
         style="fill:#ffffff;fill-opacity:1;fill-rule:nonzero;stroke:none"
         id="path54"
         inkscape:connector-curvature="0" /><path
         d="m 144.988,196.828 -4.057,0 -6.054,9.588 0,-9.588 -4.641,0 0,19.07 4.06,0 6.051,-9.587 0,9.587 4.641,0 0,-19.07"
         style="fill:#ffffff;fill-opacity:1;fill-rule:nonzero;stroke:none"
         id="path56"
         inkscape:connector-curvature="0" /><path
         d="m 162.786,205.16 c 0,-1.57 -0.14,-2.839 -0.422,-3.806 -0.281,-0.969 -0.78,-1.815 -1.494,-2.538 -0.511,-0.523 -1.057,-0.946 -1.641,-1.269 -0.581,-0.323 -1.187,-0.549 -1.818,-0.68 -0.631,-0.131 -1.307,-0.197 -2.034,-0.197 -2.097,0 -3.845,0.716 -5.245,2.146 -0.827,0.837 -1.355,1.788 -1.579,2.851 -0.225,1.064 -0.337,2.415 -0.337,4.055 l 0,1.282 c 0,1.639 0.112,2.993 0.337,4.061 0.224,1.069 0.752,2.021 1.579,2.858 0.717,0.724 1.491,1.261 2.318,1.609 0.83,0.349 1.804,0.523 2.927,0.523 2.245,0 3.974,-0.605 5.188,-1.817 1.212,-1.213 1.944,-2.713 2.195,-4.5 l -4.68,0 c -0.19,0.75 -0.492,1.295 -0.907,1.635 -0.415,0.34 -1.016,0.51 -1.802,0.51 -0.795,0 -1.404,-0.279 -1.828,-0.837 -0.155,-0.201 -0.283,-0.448 -0.382,-0.739 -0.099,-0.293 -0.175,-0.742 -0.227,-1.348 -0.052,-0.605 -0.078,-1.471 -0.078,-2.596 0,-1.125 0.026,-1.992 0.078,-2.603 0.052,-0.611 0.128,-1.064 0.227,-1.36 0.099,-0.297 0.227,-0.545 0.382,-0.746 0.415,-0.541 1.024,-0.811 1.828,-0.811 0.907,0 1.599,0.253 2.074,0.759 0.475,0.48 0.713,1.155 0.713,2.027 l 0,0.275 -2.787,0 0,3.911 7.415,0 0,-2.655"
         style="fill:#ffffff;fill-opacity:1;fill-rule:nonzero;stroke:none"
         id="path58"
         inkscape:connector-curvature="0" /><path
         d="m 175.126,206.363 c 0,1.622 -0.054,2.729 -0.162,3.323 -0.108,0.592 -0.283,1.046 -0.525,1.36 -0.172,0.244 -0.425,0.445 -0.758,0.601 -0.333,0.157 -0.702,0.236 -1.108,0.236 -0.398,0 -0.757,-0.076 -1.076,-0.229 -0.32,-0.152 -0.579,-0.355 -0.778,-0.608 -0.156,-0.201 -0.283,-0.448 -0.383,-0.739 -0.099,-0.293 -0.174,-0.742 -0.226,-1.348 -0.052,-0.605 -0.078,-1.471 -0.078,-2.596 0,-1.116 0.026,-1.977 0.078,-2.583 0.052,-0.606 0.127,-1.053 0.226,-1.341 0.1,-0.287 0.227,-0.532 0.383,-0.732 0.441,-0.576 1.059,-0.864 1.854,-0.864 0.803,0 1.426,0.288 1.866,0.864 0.242,0.339 0.417,0.795 0.525,1.366 0.108,0.572 0.162,1.668 0.162,3.29 z m 4.642,0 0,-0.641 c 0,-1.064 -0.038,-1.979 -0.112,-2.747 -0.072,-0.767 -0.248,-1.508 -0.524,-2.223 -0.277,-0.715 -0.698,-1.361 -1.269,-1.936 -0.699,-0.707 -1.47,-1.241 -2.311,-1.603 -0.843,-0.361 -1.834,-0.543 -2.973,-0.543 -0.769,0 -1.46,0.081 -2.078,0.242 -0.618,0.162 -1.188,0.399 -1.709,0.713 -0.523,0.314 -1.018,0.711 -1.484,1.191 -0.828,0.837 -1.355,1.788 -1.579,2.851 -0.226,1.064 -0.338,2.415 -0.338,4.055 l 0,1.282 c 0,1.639 0.112,2.993 0.338,4.061 0.224,1.069 0.751,2.021 1.579,2.858 0.717,0.724 1.492,1.261 2.324,1.609 0.834,0.349 1.817,0.523 2.947,0.523 1.139,0 2.128,-0.176 2.966,-0.529 0.837,-0.353 1.61,-0.887 2.318,-1.603 0.571,-0.575 0.992,-1.223 1.269,-1.942 0.276,-0.719 0.452,-1.463 0.524,-2.23 0.074,-0.767 0.112,-1.683 0.112,-2.747 l 0,-0.641"
         style="fill:#ffffff;fill-opacity:1;fill-rule:nonzero;stroke:none"
         id="path60"
         inkscape:connector-curvature="0" /><path
         d="m 77.8277,158.236 c -0.164,-1.011 -0.4601,-1.916 -0.8879,-2.714 -0.4257,-0.798 -0.9574,-1.454 -1.5921,-1.968 -0.6352,-0.515 -1.3481,-0.899 -2.1434,-1.152 -0.7949,-0.253 -1.6398,-0.379 -2.5387,-0.379 -2.0976,0 -3.8453,0.715 -5.2457,2.145 -0.8269,0.837 -1.3547,1.788 -1.5793,2.852 -0.2246,1.063 -0.3367,2.415 -0.3367,4.055 l 0,1.281 c 0,1.64 0.1121,2.994 0.3367,4.062 0.2246,1.068 0.7524,2.021 1.5793,2.858 0.709,0.715 1.4867,1.249 2.3317,1.603 0.8464,0.352 1.8168,0.529 2.914,0.529 0.9422,0 1.8039,-0.129 2.5906,-0.386 0.7864,-0.257 1.4883,-0.641 2.1106,-1.151 0.6227,-0.51 1.1473,-1.16 1.573,-1.949 0.4278,-0.789 0.7239,-1.698 0.8879,-2.727 l -4.7183,0 c -0.1645,0.619 -0.4301,1.114 -0.7973,1.485 -0.3672,0.37 -0.9098,0.555 -1.6269,0.555 -0.3977,0 -0.754,-0.073 -1.0696,-0.222 -0.3152,-0.148 -0.5683,-0.34 -0.7582,-0.576 -0.164,-0.209 -0.2961,-0.459 -0.3957,-0.751 -0.0988,-0.292 -0.1769,-0.737 -0.2332,-1.335 -0.0562,-0.597 -0.084,-1.476 -0.084,-2.635 0,-1.544 0.0563,-2.627 0.1684,-3.251 0.1125,-0.623 0.2941,-1.11 0.5445,-1.458 0.4153,-0.541 1.0238,-0.811 1.8278,-0.811 0.7,0 1.2382,0.185 1.6136,0.555 0.3758,0.371 0.6461,0.866 0.8106,1.485 l 4.7183,0"
         style="fill:#ffffff;fill-opacity:1;fill-rule:nonzero;stroke:none"
         id="path74"
         inkscape:connector-curvature="0" /><path
         d="m 92.8516,152.18 -12.5739,0 0,19.071 4.6407,0 0,-14.898 7.9332,0 0,-4.173"
         style="fill:#ffffff;fill-opacity:1;fill-rule:nonzero;stroke:none"
         id="path76"
         inkscape:connector-curvature="0" /><path
         d="m 109.586,158.877 c 0,-1.003 -0.185,-1.931 -0.557,-2.786 -0.371,-0.855 -0.89,-1.587 -1.555,-2.197 -0.666,-0.611 -1.435,-1.075 -2.308,-1.394 -0.873,-0.318 -1.797,-0.477 -2.774,-0.477 -1.288,0 -2.4822,0.284 -3.5838,0.851 -1.102,0.566 -1.9707,1.371 -2.6055,2.413 -0.6351,1.042 -0.9531,2.238 -0.9531,3.59 l 0,12.374 4.6406,0 0,-12.269 c 0,-0.872 0.2228,-1.555 0.6698,-2.047 0.445,-0.493 1.059,-0.739 1.838,-0.739 0.504,0 0.949,0.109 1.338,0.327 0.391,0.218 0.689,0.536 0.899,0.955 0.207,0.418 0.311,0.919 0.311,1.504 l 0,12.269 4.64,0 0,-12.374"
         style="fill:#ffffff;fill-opacity:1;fill-rule:nonzero;stroke:none"
         id="path78"
         inkscape:connector-curvature="0" /><path
         d="m 122.575,158.073 c 0,0.46 -0.134,0.85 -0.402,1.173 -0.268,0.32 -0.7,0.482 -1.296,0.482 l -3.137,0 0,-3.336 3.137,0 c 0.588,0 1.018,0.166 1.29,0.495 0.272,0.329 0.408,0.726 0.408,1.186 z m -0.272,7.416 c 0,0.426 -0.132,0.789 -0.395,1.094 -0.264,0.304 -0.69,0.456 -1.277,0.456 l -2.891,0 0,-3.1 2.891,0 c 0.57,0 0.992,0.153 1.264,0.456 0.272,0.303 0.408,0.669 0.408,1.094 z m 4.913,-7.689 c 0,-0.896 -0.147,-1.694 -0.441,-2.391 -0.294,-0.698 -0.704,-1.286 -1.229,-1.764 -0.527,-0.479 -1.158,-0.844 -1.891,-1.092 -0.734,-0.249 -1.512,-0.373 -2.331,-0.373 l -8.224,0 0,19.071 7.836,0 c 1.276,0 2.37,-0.229 3.274,-0.687 0.908,-0.458 1.591,-1.105 2.053,-1.938 0.463,-0.833 0.694,-1.798 0.694,-2.899 0,-0.924 -0.225,-1.703 -0.674,-2.335 -0.45,-0.634 -0.916,-1.112 -1.4,-1.434 0.622,-0.375 1.166,-0.87 1.633,-1.483 0.466,-0.615 0.7,-1.506 0.7,-2.675"
         style="fill:#ffffff;fill-opacity:1;fill-rule:nonzero;stroke:none"
         id="path80"
         inkscape:connector-curvature="0" /><path
         d="m 143.277,152.18 -12.846,0 0,19.071 12.846,0 0,-4.172 -8.206,0 0,-3.192 7.013,0 0,-4.173 -7.013,0 0,-3.361 8.206,0 0,-4.173"
         style="fill:#ffffff;fill-opacity:1;fill-rule:nonzero;stroke:none"
         id="path82"
         inkscape:connector-curvature="0" /></g></g></svg>